# xmcd
#
# Track frame offsets: 
#        150
#        17899
#        35171
#        54129
#        68168
#        85723
#        109766
#        126112
#        141731
#        156904
#
# Disc length: 2309 seconds
#
# Revision: 0
# Processed by: cddbd v1.5.2PL0 Copyright (c) Steve Scherf et al.
# Submitted via: ExactAudioCopy v1.0b3
#
DISCID=8909030a
DTITLE=BCI Music - Masterpiece Series: Jesus, Lover Of My Soul (2005)
DYEAR=2005
DGENRE=Hymns
TTITLE0=Lo! He Comes with Clouds Descending
TTITLE1=Soldiers of Christ, Arise!
TTITLE2=Jesus, Lover of My Soul
TTITLE3=Jesus, Thy Blood and Righteousness
TTITLE4=Love Divine
TTITLE5=And Can It Be?
TTITLE6=Arise, My Soul, Arise
TTITLE7=O for a Thousand Tongues
TTITLE8=Rejoice, The Lord Is King!
TTITLE9=I Want a Principle Within
EXTD=
EXTT0=
EXTT1=
EXTT2=
EXTT3=
EXTT4=
EXTT5=
EXTT6=
EXTT7=
EXTT8=
EXTT9=
PLAYORDER=
